
<svg xmlns="http://www.w3.org/2000/svg" viewBox="0 0 56.054 66.35"><g transform="translate(-240.5 -297.644)"><g transform="translate(196.745 265.397)"><path d="M82.585,33.746H53.6a8.342,8.342,0,0,0-8.342,8.342V88.754A8.342,8.342,0,0,0,53.6,97.1H89.966a8.342,8.342,0,0,0,8.342-8.342V49.469Z" fill="#fff" stroke="#ffa734" stroke-miterlimit="10" stroke-width="3"></path><path d="M204.77,33.746v9.866a7.156,7.156,0,0,0,7.156,7.156h9.866Z" transform="translate(-123.189)" fill="#ffa734"></path></g><path d="M23.3-6.68H21.372l-.759-3.432a.778.778,0,0,0-.723-.574.778.778,0,0,0-.722.571l-1.179,5.2-1.225-8.7a.765.765,0,0,0-.735-.636.761.761,0,0,0-.737.653L14.2-4.319,12.61-15.984a.764.764,0,0,0-.735-.64.764.764,0,0,0-.735.64L9.551-4.318,8.456-13.6a.761.761,0,0,0-.737-.654.764.764,0,0,0-.735.638L5.76-4.908,4.582-10.114a.778.778,0,0,0-.722-.572.778.778,0,0,0-.723.573L2.378-6.68H.445A.445.445,0,0,0,0-6.234v.594A.445.445,0,0,0,.445-5.2H2.972a.772.772,0,0,0,.719-.575l.173-.74L5.215-.573A.719.719,0,0,0,5.966,0h.008a.769.769,0,0,0,.7-.637l.983-7.027L8.762,1.721a.742.742,0,0,0,1.473.013L11.875-10.3l1.64,12.037a.742.742,0,0,0,1.473-.013L16.1-7.664l.983,7.026a.771.771,0,0,0,.7.638.717.717,0,0,0,.755-.573L19.886-6.51l.173.739a.772.772,0,0,0,.72.576H23.3a.445.445,0,0,0,.445-.445v-.594A.445.445,0,0,0,23.3-6.68Z" transform="translate(256.344 339.5)" fill="#ffa734"></path></g></svg>
