<svg xmlns="http://www.w3.org/2000/svg" viewBox="0 0 56.054 66.35"><g transform="translate(-410.326 -502.325)"><g transform="translate(366.571 470.079)"><path d="M82.585,33.746H53.6a8.342,8.342,0,0,0-8.342,8.342V88.754A8.342,8.342,0,0,0,53.6,97.1H89.966a8.342,8.342,0,0,0,8.342-8.342V49.469Z" fill="#fff" stroke="#209c61" stroke-miterlimit="10" stroke-width="3"></path><path d="M204.77,33.746v9.866a7.156,7.156,0,0,0,7.156,7.156h9.866Z" transform="translate(-123.189)" fill="#209c61"></path></g><path d="M.589,0A.381.381,0,0,1,.313-.124.381.381,0,0,1,.19-.4.506.506,0,0,1,.247-.627L4.389-6.783.57-12.673A.506.506,0,0,1,.513-12.9a.381.381,0,0,1,.123-.276A.381.381,0,0,1,.912-13.3H3.819a.79.79,0,0,1,.684.418L6.65-9.576l2.223-3.306a.776.776,0,0,1,.665-.418h2.774a.382.382,0,0,1,.276.124.381.381,0,0,1,.123.276.506.506,0,0,1-.057.228L8.8-6.821l4.18,6.194a.506.506,0,0,1,.057.228.382.382,0,0,1-.124.276A.381.381,0,0,1,12.635,0h-3a.759.759,0,0,1-.665-.38L6.536-3.914,4.161-.38A.759.759,0,0,1,3.5,0Z" transform="translate(419 527)" fill="#209c61"></path><g transform="translate(-2.695 2.152)"><g transform="translate(421.695 536.07)"><rect width="6.546" height="4.463" rx="2" fill="#209c61"></rect><rect width="6.546" height="4.463" rx="2" transform="translate(7.851)" fill="#209c61"></rect><rect width="6.546" height="4.463" rx="2" transform="translate(15.701)" fill="#209c61"></rect><rect width="6.546" height="4.463" rx="2" transform="translate(15.701 6)" fill="#209c61"></rect><rect width="6.546" height="4.463" rx="2" transform="translate(15.701 12)" fill="#209c61"></rect><rect width="6.546" height="4.463" rx="2" transform="translate(7.851 6)" fill="#209c61"></rect><rect width="6.546" height="4.463" rx="2" transform="translate(7.851 12)" fill="#209c61"></rect><rect width="6.546" height="4.463" rx="2" transform="translate(0 6)" fill="#209c61"></rect><rect width="6.546" height="4.463" rx="2" transform="translate(0 12)" fill="#209c61"></rect></g></g></g></svg>
