<svg width="56.054001" height="66.349998" viewBox="0 0 56.054 66.35" fill="none" xmlns="http://www.w3.org/2000/svg" xmlns:xlink="http://www.w3.org/1999/xlink">
	<g clip-path="url(#clip2_1)">
		<path id="path" d="M38.83 1.49899L9.84499 1.49899C8.73877 1.49899 7.67466 1.71065 6.65265 2.13398C5.63063 2.55731 4.72852 3.16009 3.94631 3.9423C3.16409 4.72451 2.56132 5.62663 2.13799 6.64864C1.71466 7.67065 1.50299 8.73477 1.50299 9.84099L1.50299 56.507C1.50246 57.6135 1.71375 58.6781 2.13684 59.7006C2.55994 60.723 3.16262 61.6256 3.94489 62.4083C4.72717 63.1909 5.62944 63.794 6.65172 64.2176C7.674 64.6412 8.73843 64.853 9.84499 64.853L46.211 64.853C47.3172 64.853 48.3813 64.6413 49.4033 64.218C50.4254 63.7947 51.3275 63.1919 52.1097 62.4097C52.8919 61.6275 53.4947 60.7253 53.918 59.7033C54.3413 58.6813 54.553 57.6172 54.553 56.511L54.553 17.222L38.83 1.49899Z" fill-rule="nonzero" fill="#FFFFFF"/>
		<path id="path" d="M9.84499 1.49899C8.73877 1.49899 7.67466 1.71065 6.65265 2.13398C5.63063 2.55731 4.72852 3.16009 3.94631 3.9423C3.16409 4.72451 2.56132 5.62663 2.13799 6.64864C1.71466 7.67065 1.50299 8.73477 1.50299 9.84099L1.50299 56.507C1.50246 57.6135 1.71375 58.6781 2.13684 59.7006C2.55994 60.723 3.16262 61.6256 3.94489 62.4083C4.72717 63.1909 5.62944 63.794 6.65172 64.2176C7.674 64.6412 8.73843 64.853 9.84499 64.853L46.211 64.853C47.3172 64.853 48.3813 64.6413 49.4033 64.218C50.4254 63.7947 51.3275 63.1919 52.1097 62.4097C52.8919 61.6275 53.4947 60.7253 53.918 59.7033C54.3413 58.6813 54.553 57.6172 54.553 56.511L54.553 17.222L38.83 1.49899L9.84499 1.49899Z" stroke="#B7B7B7" stroke-width="3.000000"/>
		<path id="path" d="M37.826 1.49899L37.826 11.365C37.826 12.3139 38.0076 13.2268 38.3707 14.1035C38.7339 14.9802 39.2509 15.754 39.9219 16.425C40.5929 17.0961 41.3668 17.6131 42.2435 17.9763C43.1202 18.3394 44.0331 18.521 44.982 18.521L54.848 18.521L37.826 1.49899Z" fill-rule="nonzero" fill="#B7B7B7"/>
		<path id="矢量 8" d="M33.0372 24.654C31.8181 23.5852 30.2088 23 28.502 23C26.7952 23 25.186 23.5892 23.9669 24.654C22.699 25.7634 22 27.2548 22 28.8518L22 29.1607C22 29.3395 22.1463 29.4858 22.3251 29.4858L24.2757 29.4858C24.4545 29.4858 24.6008 29.3395 24.6008 29.1607L24.6008 28.8518C24.6008 27.0597 26.3523 25.6008 28.502 25.6008C30.6517 25.6008 32.4032 27.0597 32.4032 28.8518C32.4032 30.1157 31.5092 31.2738 30.1235 31.8062C29.262 32.1353 28.5305 32.7124 28.0062 33.4683C27.4739 34.2404 27.1976 35.1669 27.1976 36.1056L27.1976 36.9793C27.1976 37.1582 27.3439 37.3045 27.5227 37.3045L29.4733 37.3045C29.6521 37.3045 29.7984 37.1582 29.7984 36.9793L29.7984 36.0569C29.7984 35.2563 30.3023 34.5248 31.0541 34.2363C33.4517 33.3138 35 31.2007 35 28.8518C35.004 27.2548 34.3051 25.7634 33.0372 24.654ZM26.8765 41.5308C26.8765 42.4286 27.6043 43.1563 28.502 43.1563C29.3998 43.1563 30.1275 42.4286 30.1275 41.5308C30.1275 40.633 29.3998 39.9053 28.502 39.9053C27.6043 39.9053 26.8765 40.633 26.8765 41.5308Z" fill-rule="evenodd" fill="#B7B7B7"/>
	</g>
</svg>
