<svg xmlns="http://www.w3.org/2000/svg" viewBox="0 0 56.054 66.35"><g transform="translate(-586.74 -502.325)"><g transform="translate(542.985 470.079)"><path d="M82.585,33.746H53.6a8.342,8.342,0,0,0-8.342,8.342V88.754A8.342,8.342,0,0,0,53.6,97.1H89.966a8.342,8.342,0,0,0,8.342-8.342V49.469Z" fill="#fff" stroke="#04a0b2" stroke-miterlimit="10" stroke-width="3"></path><path d="M204.77,33.746v9.866a7.156,7.156,0,0,0,7.156,7.156h9.866Z" transform="translate(-123.189)" fill="#04a0b2"></path></g><g transform="translate(0.887 3.384)"><g transform="translate(603.613 524.116)"><path d="M3,16a3,3,0,0,1-3-3V3A3,3,0,0,1,3,0h8.3a3,3,0,0,1,3,3V5.943L20.471,2.1A1,1,0,0,1,22,2.944V13.055a1,1,0,0,1-1.529.849L14.3,10.057V13a3,3,0,0,1-3,3Z" fill="#04a0b2"></path></g></g></g></svg>
