<svg xmlns="http://www.w3.org/2000/svg" viewBox="0 0 56.054 66.35"><g transform="translate(-588.829 -297.644)"><g transform="translate(545.074 265.397)"><path d="M82.585,33.746H53.6a8.342,8.342,0,0,0-8.342,8.342V88.754A8.342,8.342,0,0,0,53.6,97.1H89.966a8.342,8.342,0,0,0,8.342-8.342V49.469Z" fill="#fff" stroke="#2a60ae" stroke-miterlimit="10" stroke-width="3"></path><path d="M204.77,33.746v9.866a7.156,7.156,0,0,0,7.156,7.156h9.866Z" transform="translate(-123.189)" fill="#2a60ae"></path></g><g transform="translate(596.025 337.278)"><rect width="17.063" height="3.707" rx="1.853" transform="translate(0 5.926)" fill="#2a60ae"></rect><rect width="11.25" height="3.707" rx="1.853" transform="translate(0 11.851)" fill="#2a60ae"></rect><rect width="30.474" height="3.707" rx="1.853" fill="#2a60ae"></rect></g><path d="M3.42,0A.749.749,0,0,1,2.9-.181.723.723,0,0,1,2.66-.627L.627-12.787A.265.265,0,0,1,.608-12.9a.381.381,0,0,1,.124-.276.381.381,0,0,1,.275-.124H3.5q.551,0,.608.437L5.263-5.681,6.574-9.842a.62.62,0,0,1,.627-.513H8.626a.62.62,0,0,1,.627.513L10.564-5.7l1.178-7.163a.51.51,0,0,1,.171-.332.676.676,0,0,1,.418-.1H14.82a.372.372,0,0,1,.285.124.4.4,0,0,1,.114.276v.114L13.186-.627a.705.705,0,0,1-.247.446A.757.757,0,0,1,12.426,0H10.507a.69.69,0,0,1-.475-.152A.742.742,0,0,1,9.8-.494L7.923-5.757,6.042-.494A.908.908,0,0,1,5.8-.152.69.69,0,0,1,5.32,0Z" transform="translate(597 323)" fill="#2a60ae"></path></g></svg>
